<mxfile host="app.diagrams.net" modified="2023-06-22T14:41:48.499Z" agent="Mozilla/5.0 (X11; Linux x86_64) AppleWebKit/537.36 (KHTML, like Gecko) Chrome/112.0.0.0 Safari/537.36" version="21.5.0" etag="PVSUA1Yah8FYcBgmNhNE" type="github">
  <diagram name="Pagina-1" id="TaHnF41j9LLqSMtScbsr">
    <mxGraphModel>
      <root>
        <mxCell id="0" />
        <mxCell id="1" parent="0" />
      </root>
    </mxGraphModel>
  </diagram>
</mxfile>
